<mxfile host="app.diagrams.net" modified="2023-04-18T05:12:03.038Z" agent="Mozilla/5.0 (Windows NT 10.0; Win64; x64; rv:109.0) Gecko/20100101 Firefox/111.0" etag="XNFba79d4gtdXWEReuWs" version="21.1.4" type="device">
  <diagram name="Страница 1" id="faiRbp26IlQZrEfsnLXw">
    <mxGraphModel dx="1122" dy="485" grid="1" gridSize="10" guides="1" tooltips="1" connect="1" arrows="1" fold="1" page="1" pageScale="1" pageWidth="2339" pageHeight="3300" math="0" shadow="0">
      <root>
        <mxCell id="0" />
        <mxCell id="1" parent="0" />
        <mxCell id="of08fOFgzl-01wkqnDDv-1" value="A" style="ellipse;whiteSpace=wrap;html=1;aspect=fixed;" vertex="1" parent="1">
          <mxGeometry x="280" y="240" width="40" height="40" as="geometry" />
        </mxCell>
        <mxCell id="of08fOFgzl-01wkqnDDv-2" value="B" style="ellipse;whiteSpace=wrap;html=1;aspect=fixed;" vertex="1" parent="1">
          <mxGeometry x="360" y="160" width="40" height="40" as="geometry" />
        </mxCell>
        <mxCell id="of08fOFgzl-01wkqnDDv-3" value="C" style="ellipse;whiteSpace=wrap;html=1;aspect=fixed;" vertex="1" parent="1">
          <mxGeometry x="360" y="320" width="40" height="40" as="geometry" />
        </mxCell>
        <mxCell id="of08fOFgzl-01wkqnDDv-4" value="D" style="ellipse;whiteSpace=wrap;html=1;aspect=fixed;" vertex="1" parent="1">
          <mxGeometry x="440" y="240" width="40" height="40" as="geometry" />
        </mxCell>
        <mxCell id="of08fOFgzl-01wkqnDDv-5" value="E" style="ellipse;whiteSpace=wrap;html=1;aspect=fixed;" vertex="1" parent="1">
          <mxGeometry x="520" y="320" width="40" height="40" as="geometry" />
        </mxCell>
        <mxCell id="of08fOFgzl-01wkqnDDv-6" value="F" style="ellipse;whiteSpace=wrap;html=1;aspect=fixed;" vertex="1" parent="1">
          <mxGeometry x="520" y="160" width="40" height="40" as="geometry" />
        </mxCell>
        <mxCell id="of08fOFgzl-01wkqnDDv-7" value="G" style="ellipse;whiteSpace=wrap;html=1;aspect=fixed;" vertex="1" parent="1">
          <mxGeometry x="600" y="240" width="40" height="40" as="geometry" />
        </mxCell>
        <mxCell id="of08fOFgzl-01wkqnDDv-8" value="" style="endArrow=none;html=1;rounded=0;entryX=1;entryY=1;entryDx=0;entryDy=0;exitX=0;exitY=0;exitDx=0;exitDy=0;" edge="1" parent="1" source="of08fOFgzl-01wkqnDDv-7" target="of08fOFgzl-01wkqnDDv-6">
          <mxGeometry width="50" height="50" relative="1" as="geometry">
            <mxPoint x="510" y="310" as="sourcePoint" />
            <mxPoint x="560" y="260" as="targetPoint" />
          </mxGeometry>
        </mxCell>
        <mxCell id="of08fOFgzl-01wkqnDDv-9" value="" style="endArrow=none;html=1;rounded=0;entryX=0;entryY=1;entryDx=0;entryDy=0;exitX=1;exitY=0;exitDx=0;exitDy=0;" edge="1" parent="1" source="of08fOFgzl-01wkqnDDv-5" target="of08fOFgzl-01wkqnDDv-7">
          <mxGeometry width="50" height="50" relative="1" as="geometry">
            <mxPoint x="520" y="320" as="sourcePoint" />
            <mxPoint x="570" y="270" as="targetPoint" />
          </mxGeometry>
        </mxCell>
        <mxCell id="of08fOFgzl-01wkqnDDv-10" value="" style="endArrow=none;html=1;rounded=0;entryX=0;entryY=1;entryDx=0;entryDy=0;exitX=1;exitY=0;exitDx=0;exitDy=0;" edge="1" parent="1" source="of08fOFgzl-01wkqnDDv-4" target="of08fOFgzl-01wkqnDDv-6">
          <mxGeometry width="50" height="50" relative="1" as="geometry">
            <mxPoint x="530" y="330" as="sourcePoint" />
            <mxPoint x="580" y="280" as="targetPoint" />
          </mxGeometry>
        </mxCell>
        <mxCell id="of08fOFgzl-01wkqnDDv-12" value="" style="endArrow=none;html=1;rounded=0;exitX=1;exitY=1;exitDx=0;exitDy=0;entryX=0;entryY=0;entryDx=0;entryDy=0;" edge="1" parent="1" source="of08fOFgzl-01wkqnDDv-4" target="of08fOFgzl-01wkqnDDv-5">
          <mxGeometry width="50" height="50" relative="1" as="geometry">
            <mxPoint x="550" y="350" as="sourcePoint" />
            <mxPoint x="600" y="300" as="targetPoint" />
          </mxGeometry>
        </mxCell>
        <mxCell id="of08fOFgzl-01wkqnDDv-13" value="" style="endArrow=none;html=1;rounded=0;entryX=0;entryY=0.5;entryDx=0;entryDy=0;exitX=1;exitY=0.5;exitDx=0;exitDy=0;" edge="1" parent="1" source="of08fOFgzl-01wkqnDDv-3" target="of08fOFgzl-01wkqnDDv-5">
          <mxGeometry width="50" height="50" relative="1" as="geometry">
            <mxPoint x="560" y="360" as="sourcePoint" />
            <mxPoint x="610" y="310" as="targetPoint" />
          </mxGeometry>
        </mxCell>
        <mxCell id="of08fOFgzl-01wkqnDDv-14" value="" style="endArrow=none;html=1;rounded=0;entryX=0;entryY=0.5;entryDx=0;entryDy=0;exitX=1;exitY=0.5;exitDx=0;exitDy=0;" edge="1" parent="1" source="of08fOFgzl-01wkqnDDv-2" target="of08fOFgzl-01wkqnDDv-6">
          <mxGeometry width="50" height="50" relative="1" as="geometry">
            <mxPoint x="570" y="370" as="sourcePoint" />
            <mxPoint x="620" y="320" as="targetPoint" />
          </mxGeometry>
        </mxCell>
        <mxCell id="of08fOFgzl-01wkqnDDv-15" value="" style="endArrow=none;html=1;rounded=0;entryX=0;entryY=1;entryDx=0;entryDy=0;exitX=1;exitY=0;exitDx=0;exitDy=0;" edge="1" parent="1" source="of08fOFgzl-01wkqnDDv-3" target="of08fOFgzl-01wkqnDDv-4">
          <mxGeometry width="50" height="50" relative="1" as="geometry">
            <mxPoint x="580" y="380" as="sourcePoint" />
            <mxPoint x="630" y="330" as="targetPoint" />
          </mxGeometry>
        </mxCell>
        <mxCell id="of08fOFgzl-01wkqnDDv-16" value="" style="endArrow=none;html=1;rounded=0;entryX=0;entryY=0;entryDx=0;entryDy=0;exitX=1;exitY=1;exitDx=0;exitDy=0;" edge="1" parent="1" source="of08fOFgzl-01wkqnDDv-2" target="of08fOFgzl-01wkqnDDv-4">
          <mxGeometry width="50" height="50" relative="1" as="geometry">
            <mxPoint x="590" y="390" as="sourcePoint" />
            <mxPoint x="640" y="340" as="targetPoint" />
          </mxGeometry>
        </mxCell>
        <mxCell id="of08fOFgzl-01wkqnDDv-18" value="" style="endArrow=none;html=1;rounded=0;exitX=0;exitY=0;exitDx=0;exitDy=0;entryX=1;entryY=1;entryDx=0;entryDy=0;" edge="1" parent="1" source="of08fOFgzl-01wkqnDDv-3" target="of08fOFgzl-01wkqnDDv-1">
          <mxGeometry width="50" height="50" relative="1" as="geometry">
            <mxPoint x="610" y="410" as="sourcePoint" />
            <mxPoint x="660" y="360" as="targetPoint" />
          </mxGeometry>
        </mxCell>
        <mxCell id="of08fOFgzl-01wkqnDDv-19" value="" style="endArrow=none;html=1;rounded=0;exitX=1;exitY=0;exitDx=0;exitDy=0;entryX=0;entryY=1;entryDx=0;entryDy=0;" edge="1" parent="1" source="of08fOFgzl-01wkqnDDv-1" target="of08fOFgzl-01wkqnDDv-2">
          <mxGeometry width="50" height="50" relative="1" as="geometry">
            <mxPoint x="620" y="420" as="sourcePoint" />
            <mxPoint x="670" y="370" as="targetPoint" />
          </mxGeometry>
        </mxCell>
        <mxCell id="of08fOFgzl-01wkqnDDv-20" value="3" style="text;html=1;align=center;verticalAlign=middle;resizable=0;points=[];autosize=1;strokeColor=none;fillColor=none;" vertex="1" parent="1">
          <mxGeometry x="325" y="195" width="30" height="30" as="geometry" />
        </mxCell>
        <mxCell id="of08fOFgzl-01wkqnDDv-21" value="6" style="text;html=1;align=center;verticalAlign=middle;resizable=0;points=[];autosize=1;strokeColor=none;fillColor=none;" vertex="1" parent="1">
          <mxGeometry x="455" y="155" width="30" height="30" as="geometry" />
        </mxCell>
        <mxCell id="of08fOFgzl-01wkqnDDv-22" value="9" style="text;html=1;align=center;verticalAlign=middle;resizable=0;points=[];autosize=1;strokeColor=none;fillColor=none;" vertex="1" parent="1">
          <mxGeometry x="415" y="205" width="30" height="30" as="geometry" />
        </mxCell>
        <mxCell id="of08fOFgzl-01wkqnDDv-23" value="2" style="text;html=1;align=center;verticalAlign=middle;resizable=0;points=[];autosize=1;strokeColor=none;fillColor=none;" vertex="1" parent="1">
          <mxGeometry x="335" y="285" width="30" height="30" as="geometry" />
        </mxCell>
        <mxCell id="of08fOFgzl-01wkqnDDv-24" value="10" style="text;html=1;align=center;verticalAlign=middle;resizable=0;points=[];autosize=1;strokeColor=none;fillColor=none;" vertex="1" parent="1">
          <mxGeometry x="400" y="275" width="40" height="30" as="geometry" />
        </mxCell>
        <mxCell id="of08fOFgzl-01wkqnDDv-25" value="5" style="text;html=1;align=center;verticalAlign=middle;resizable=0;points=[];autosize=1;strokeColor=none;fillColor=none;" vertex="1" parent="1">
          <mxGeometry x="455" y="315" width="30" height="30" as="geometry" />
        </mxCell>
        <mxCell id="of08fOFgzl-01wkqnDDv-26" value="6" style="text;html=1;align=center;verticalAlign=middle;resizable=0;points=[];autosize=1;strokeColor=none;fillColor=none;" vertex="1" parent="1">
          <mxGeometry x="495" y="285" width="30" height="30" as="geometry" />
        </mxCell>
        <mxCell id="of08fOFgzl-01wkqnDDv-27" value="4" style="text;html=1;align=center;verticalAlign=middle;resizable=0;points=[];autosize=1;strokeColor=none;fillColor=none;" vertex="1" parent="1">
          <mxGeometry x="485" y="215" width="30" height="30" as="geometry" />
        </mxCell>
        <mxCell id="of08fOFgzl-01wkqnDDv-28" value="2" style="text;html=1;align=center;verticalAlign=middle;resizable=0;points=[];autosize=1;strokeColor=none;fillColor=none;" vertex="1" parent="1">
          <mxGeometry x="575" y="195" width="30" height="30" as="geometry" />
        </mxCell>
        <mxCell id="of08fOFgzl-01wkqnDDv-29" value="1" style="text;html=1;align=center;verticalAlign=middle;resizable=0;points=[];autosize=1;strokeColor=none;fillColor=none;" vertex="1" parent="1">
          <mxGeometry x="575" y="295" width="30" height="30" as="geometry" />
        </mxCell>
        <mxCell id="of08fOFgzl-01wkqnDDv-57" value="" style="endArrow=none;html=1;rounded=0;entryX=0;entryY=0.5;entryDx=0;entryDy=0;exitX=1;exitY=0.5;exitDx=0;exitDy=0;" edge="1" parent="1" source="of08fOFgzl-01wkqnDDv-1" target="of08fOFgzl-01wkqnDDv-4">
          <mxGeometry width="50" height="50" relative="1" as="geometry">
            <mxPoint x="450" y="390" as="sourcePoint" />
            <mxPoint x="500" y="340" as="targetPoint" />
          </mxGeometry>
        </mxCell>
        <mxCell id="of08fOFgzl-01wkqnDDv-58" value="" style="endArrow=none;html=1;rounded=0;entryX=1;entryY=0.5;entryDx=0;entryDy=0;exitX=0;exitY=0.5;exitDx=0;exitDy=0;" edge="1" parent="1" source="of08fOFgzl-01wkqnDDv-7" target="of08fOFgzl-01wkqnDDv-4">
          <mxGeometry width="50" height="50" relative="1" as="geometry">
            <mxPoint x="330" y="270" as="sourcePoint" />
            <mxPoint x="450" y="270" as="targetPoint" />
          </mxGeometry>
        </mxCell>
        <mxCell id="of08fOFgzl-01wkqnDDv-59" value="4" style="text;html=1;align=center;verticalAlign=middle;resizable=0;points=[];autosize=1;strokeColor=none;fillColor=none;" vertex="1" parent="1">
          <mxGeometry x="365" y="235" width="30" height="30" as="geometry" />
        </mxCell>
        <mxCell id="of08fOFgzl-01wkqnDDv-60" value="5" style="text;html=1;align=center;verticalAlign=middle;resizable=0;points=[];autosize=1;strokeColor=none;fillColor=none;" vertex="1" parent="1">
          <mxGeometry x="535" y="235" width="30" height="30" as="geometry" />
        </mxCell>
        <mxCell id="of08fOFgzl-01wkqnDDv-61" value="A" style="ellipse;whiteSpace=wrap;html=1;aspect=fixed;" vertex="1" parent="1">
          <mxGeometry x="290" y="475" width="40" height="40" as="geometry" />
        </mxCell>
        <mxCell id="of08fOFgzl-01wkqnDDv-62" value="B" style="ellipse;whiteSpace=wrap;html=1;aspect=fixed;" vertex="1" parent="1">
          <mxGeometry x="370" y="395" width="40" height="40" as="geometry" />
        </mxCell>
        <mxCell id="of08fOFgzl-01wkqnDDv-63" value="C" style="ellipse;whiteSpace=wrap;html=1;aspect=fixed;" vertex="1" parent="1">
          <mxGeometry x="370" y="555" width="40" height="40" as="geometry" />
        </mxCell>
        <mxCell id="of08fOFgzl-01wkqnDDv-64" value="D" style="ellipse;whiteSpace=wrap;html=1;aspect=fixed;" vertex="1" parent="1">
          <mxGeometry x="450" y="475" width="40" height="40" as="geometry" />
        </mxCell>
        <mxCell id="of08fOFgzl-01wkqnDDv-65" value="E" style="ellipse;whiteSpace=wrap;html=1;aspect=fixed;" vertex="1" parent="1">
          <mxGeometry x="530" y="555" width="40" height="40" as="geometry" />
        </mxCell>
        <mxCell id="of08fOFgzl-01wkqnDDv-66" value="F" style="ellipse;whiteSpace=wrap;html=1;aspect=fixed;" vertex="1" parent="1">
          <mxGeometry x="530" y="395" width="40" height="40" as="geometry" />
        </mxCell>
        <mxCell id="of08fOFgzl-01wkqnDDv-67" value="G" style="ellipse;whiteSpace=wrap;html=1;aspect=fixed;" vertex="1" parent="1">
          <mxGeometry x="610" y="475" width="40" height="40" as="geometry" />
        </mxCell>
        <mxCell id="of08fOFgzl-01wkqnDDv-68" value="" style="endArrow=none;html=1;rounded=0;entryX=1;entryY=1;entryDx=0;entryDy=0;exitX=0;exitY=0;exitDx=0;exitDy=0;" edge="1" parent="1" source="of08fOFgzl-01wkqnDDv-67" target="of08fOFgzl-01wkqnDDv-66">
          <mxGeometry width="50" height="50" relative="1" as="geometry">
            <mxPoint x="520" y="545" as="sourcePoint" />
            <mxPoint x="570" y="495" as="targetPoint" />
          </mxGeometry>
        </mxCell>
        <mxCell id="of08fOFgzl-01wkqnDDv-69" value="" style="endArrow=none;html=1;rounded=0;entryX=0;entryY=1;entryDx=0;entryDy=0;exitX=1;exitY=0;exitDx=0;exitDy=0;" edge="1" parent="1" source="of08fOFgzl-01wkqnDDv-65" target="of08fOFgzl-01wkqnDDv-67">
          <mxGeometry width="50" height="50" relative="1" as="geometry">
            <mxPoint x="530" y="555" as="sourcePoint" />
            <mxPoint x="580" y="505" as="targetPoint" />
          </mxGeometry>
        </mxCell>
        <mxCell id="of08fOFgzl-01wkqnDDv-70" value="" style="endArrow=none;html=1;rounded=0;entryX=0;entryY=1;entryDx=0;entryDy=0;exitX=1;exitY=0;exitDx=0;exitDy=0;" edge="1" parent="1" source="of08fOFgzl-01wkqnDDv-64" target="of08fOFgzl-01wkqnDDv-66">
          <mxGeometry width="50" height="50" relative="1" as="geometry">
            <mxPoint x="540" y="565" as="sourcePoint" />
            <mxPoint x="590" y="515" as="targetPoint" />
          </mxGeometry>
        </mxCell>
        <mxCell id="of08fOFgzl-01wkqnDDv-76" value="" style="endArrow=none;html=1;rounded=0;exitX=0;exitY=0;exitDx=0;exitDy=0;entryX=1;entryY=1;entryDx=0;entryDy=0;" edge="1" parent="1" source="of08fOFgzl-01wkqnDDv-63" target="of08fOFgzl-01wkqnDDv-61">
          <mxGeometry width="50" height="50" relative="1" as="geometry">
            <mxPoint x="620" y="645" as="sourcePoint" />
            <mxPoint x="670" y="595" as="targetPoint" />
          </mxGeometry>
        </mxCell>
        <mxCell id="of08fOFgzl-01wkqnDDv-77" value="" style="endArrow=none;html=1;rounded=0;exitX=1;exitY=0;exitDx=0;exitDy=0;entryX=0;entryY=1;entryDx=0;entryDy=0;" edge="1" parent="1" source="of08fOFgzl-01wkqnDDv-61" target="of08fOFgzl-01wkqnDDv-62">
          <mxGeometry width="50" height="50" relative="1" as="geometry">
            <mxPoint x="630" y="655" as="sourcePoint" />
            <mxPoint x="680" y="605" as="targetPoint" />
          </mxGeometry>
        </mxCell>
        <mxCell id="of08fOFgzl-01wkqnDDv-78" value="3" style="text;html=1;align=center;verticalAlign=middle;resizable=0;points=[];autosize=1;strokeColor=none;fillColor=none;" vertex="1" parent="1">
          <mxGeometry x="335" y="430" width="30" height="30" as="geometry" />
        </mxCell>
        <mxCell id="of08fOFgzl-01wkqnDDv-81" value="2" style="text;html=1;align=center;verticalAlign=middle;resizable=0;points=[];autosize=1;strokeColor=none;fillColor=none;" vertex="1" parent="1">
          <mxGeometry x="345" y="520" width="30" height="30" as="geometry" />
        </mxCell>
        <mxCell id="of08fOFgzl-01wkqnDDv-85" value="4" style="text;html=1;align=center;verticalAlign=middle;resizable=0;points=[];autosize=1;strokeColor=none;fillColor=none;" vertex="1" parent="1">
          <mxGeometry x="495" y="450" width="30" height="30" as="geometry" />
        </mxCell>
        <mxCell id="of08fOFgzl-01wkqnDDv-86" value="2" style="text;html=1;align=center;verticalAlign=middle;resizable=0;points=[];autosize=1;strokeColor=none;fillColor=none;" vertex="1" parent="1">
          <mxGeometry x="585" y="430" width="30" height="30" as="geometry" />
        </mxCell>
        <mxCell id="of08fOFgzl-01wkqnDDv-87" value="1" style="text;html=1;align=center;verticalAlign=middle;resizable=0;points=[];autosize=1;strokeColor=none;fillColor=none;" vertex="1" parent="1">
          <mxGeometry x="585" y="530" width="30" height="30" as="geometry" />
        </mxCell>
        <mxCell id="of08fOFgzl-01wkqnDDv-88" value="" style="endArrow=none;html=1;rounded=0;entryX=0;entryY=0.5;entryDx=0;entryDy=0;exitX=1;exitY=0.5;exitDx=0;exitDy=0;" edge="1" parent="1" source="of08fOFgzl-01wkqnDDv-61" target="of08fOFgzl-01wkqnDDv-64">
          <mxGeometry width="50" height="50" relative="1" as="geometry">
            <mxPoint x="460" y="625" as="sourcePoint" />
            <mxPoint x="510" y="575" as="targetPoint" />
          </mxGeometry>
        </mxCell>
        <mxCell id="of08fOFgzl-01wkqnDDv-90" value="4" style="text;html=1;align=center;verticalAlign=middle;resizable=0;points=[];autosize=1;strokeColor=none;fillColor=none;" vertex="1" parent="1">
          <mxGeometry x="375" y="470" width="30" height="30" as="geometry" />
        </mxCell>
      </root>
    </mxGraphModel>
  </diagram>
</mxfile>
